<svg width="32" height="32" viewBox="0 0 32 32" xmlns="http://www.w3.org/2000/svg">
    <g fill="none" fill-rule="evenodd">
        <path d="M0 0h32v32H0z"/>
        <g transform="translate(5.222 6.028)">
            <circle fill="#D82D8B" cx="5.242" cy="8.732" r="1"/>
            <circle fill="#D82D8B" cx="5.242" cy="14.371" r="1"/>
            <path d="M8.407 19.405H3.625a3.222 3.222 0 0 1-3.222-3.222v-2.75m0-7.027V3.222A3.222 3.222 0 0 1 3.625 0h12.828a3.222 3.222 0 0 1 3.222 3.222v4.704h0" stroke="#D82D8B" stroke-width="1.6" stroke-linecap="round"/>
            <path stroke="#EB2F96" stroke-width="1.6" stroke-linecap="round" stroke-linejoin="round" d="M.403 9.537v.935"/>
            <path stroke="#D82D8B" stroke-width="1.6" stroke-linecap="round" d="M.403 4.425h19.272"/>
            <g fill="#D82D8B" stroke="#D82D8B" stroke-width=".3">
                <path d="M11.68 15.306a4.833 4.833 0 0 0 4.834 4.833c1.446 0 2.686-.652 3.508-1.813h-1.696a.604.604 0 1 1 0-1.208h3.021c.334 0 .604.27.604.604v3.021a.604.604 0 0 1-1.208 0v-1.372c-1.042 1.262-2.535 1.976-4.23 1.976a6.042 6.042 0 0 1-6.04-6.041h1.208zM16.514 9.264a6.042 6.042 0 0 1 6.042 6.042h-1.209a4.833 4.833 0 0 0-4.833-4.834c-1.446 0-2.687.652-3.508 1.813H14.7a.604.604 0 0 1 0 1.208h-3.02a.604.604 0 0 1-.605-.604v-3.02a.604.604 0 1 1 1.209 0v1.37c1.042-1.26 2.535-1.975 4.229-1.975z"/>
            </g>
        </g>
    </g>
</svg>
